<svg xmlns="http://www.w3.org/2000/svg" width="493.95477294921875" height="219.92831420898438" viewBox="-215.228271484375 -54.05272674560547 493.95477294921875 219.92831420898438"><title>Neo4j Graph Visualization</title><desc>Created using Neo4j (http://www.neo4j.com/)</desc><g class="layer relationships"><g class="relationship" transform="translate(-186.22827711911805 70.34751142760207) rotate(387.9661961096615)"><path class="outline" fill="#A5ABB6" stroke="none" d="M 25 0.5 L 44.055985262898304 0.5 L 44.055985262898304 -0.5 L 25 -0.5 Z M 90.8098915128983 0.5 L 109.86587677579661 0.5 L 109.86587677579661 3.5 L 116.86587677579661 0 L 109.86587677579661 -3.5 L 109.86587677579661 -0.5 L 90.8098915128983 -0.5 Z"/><text text-anchor="middle" pointer-events="none" font-size="8px" fill="#000000" x="67.4329383878983" y="3" font-family="sans-serif">_RELATED</text></g><g class="relationship" transform="translate(-186.22827711911805 70.34751142760207) rotate(316.16556150302824)"><path class="outline" fill="#A5ABB6" stroke="none" d="M 25 0.5 L 41.996438509173785 0.5 L 41.996438509173785 -0.5 L 25 -0.5 Z M 88.75034475917379 0.5 L 105.74678326834757 0.5 L 105.74678326834757 3.5 L 112.74678326834757 0 L 105.74678326834757 -3.5 L 105.74678326834757 -0.5 L 88.75034475917379 -0.5 Z"/><text text-anchor="middle" pointer-events="none" font-size="8px" fill="#000000" x="65.37339163417379" y="3" font-family="sans-serif">_RELATED</text></g><g class="relationship" transform="translate(-186.22827711911805 70.34751142760207) rotate(350.96788364344775)"><path class="outline" fill="#A5ABB6" stroke="none" d="M 24.018736134675446,-6.953439040707552 L 24.277555179777966,-5.987513214418485 A 354.0438342526408 354.0438342526408 0 0 1 89.92091396071504,-17.09603113064594 L 89.84750517397646,-18.093333065883996 A 355.0438342526408 355.0438342526408 0 0 0 24.018736134675446,-6.953439040707552 Z M 136.63209972998976,-18.446076004268775 L 136.57373719712638,-17.447780549627282 A 354.0438342526408 354.0438342526408 0 0 1 202.37713388850838,-7.330334912778712 L 201.6444594292662,-4.421178997951494 L 209.28727676631226,-6.105620493684835 L 203.35403316749796,-11.209209465881667 L 202.62135870825577,-8.30005355105445 A 355.0438342526408 355.0438342526408 0 0 0 136.63209972998976,-18.446076004268775"/><text text-anchor="middle" pointer-events="none" font-size="8px" fill="#000000" x="113.23775554682686" y="-15.54118729889177" font-family="sans-serif">_RELATED</text></g><g class="relationship" transform="translate(44.406306952703076 33.68604805831583) rotate(495.589528886824)"><path class="outline" fill="#A5ABB6" stroke="none" d="M 25 0.5 L 46.851571912257924 0.5 L 46.851571912257924 -0.5 L 25 -0.5 Z M 93.60547816225792 0.5 L 115.45705007451585 0.5 L 115.45705007451585 3.5 L 122.45705007451585 0 L 115.45705007451585 -3.5 L 115.45705007451585 -0.5 L 93.60547816225792 -0.5 Z"/><text text-anchor="middle" pointer-events="none" font-size="8px" fill="#000000" x="70.22852503725792" y="3" transform="rotate(180 70.22852503725792 0)" font-family="sans-serif">_RELATED</text></g><g class="relationship" transform="translate(44.406306952703076 33.68604805831583) rotate(204.1065745076137)"><path class="outline" fill="#A5ABB6" stroke="none" d="M 25 0.5 L 45.03013617062949 0.5 L 45.03013617062949 -0.5 L 25 -0.5 Z M 91.78404242062949 0.5 L 111.81417859125898 0.5 L 111.81417859125898 3.5 L 118.81417859125898 0 L 111.81417859125898 -3.5 L 111.81417859125898 -0.5 L 91.78404242062949 -0.5 Z"/><text text-anchor="middle" pointer-events="none" font-size="8px" fill="#000000" x="68.40708929562949" y="3" transform="rotate(180 68.40708929562949 0)" font-family="sans-serif">_RELATED</text></g><g class="relationship" transform="translate(44.406306952703076 33.68604805831583) rotate(530.9678836434477)"><path class="outline" fill="#A5ABB6" stroke="none" d="M 24.018736134675446,-6.953439040707552 L 24.277555179777966,-5.987513214418485 A 354.0438342526408 354.0438342526408 0 0 1 89.92091396071504,-17.09603113064594 L 89.84750517397646,-18.093333065883996 A 355.0438342526408 355.0438342526408 0 0 0 24.018736134675446,-6.953439040707552 Z M 136.63209972998976,-18.446076004268775 L 136.57373719712638,-17.447780549627282 A 354.0438342526408 354.0438342526408 0 0 1 202.37713388850838,-7.330334912778712 L 201.6444594292662,-4.421178997951494 L 209.28727676631226,-6.105620493684835 L 203.35403316749796,-11.209209465881667 L 202.62135870825577,-8.30005355105445 A 355.0438342526408 355.0438342526408 0 0 0 136.63209972998976,-18.446076004268775"/><text text-anchor="middle" pointer-events="none" font-size="8px" fill="#000000" x="113.23775554682686" y="-15.54118729889177" transform="rotate(180 113.23775554682686 -18.54118729889177)" font-family="sans-serif">_RELATED</text></g><g class="relationship" transform="translate(185.62754232262233 104.69015903166186) rotate(206.69262614087336)"><path class="outline" fill="#A5ABB6" stroke="none" d="M 25 0.5 L 52.156301101498514 0.5 L 52.156301101498514 -0.5 L 25 -0.5 Z M 98.91020735149851 0.5 L 126.06650845299703 0.5 L 126.06650845299703 3.5 L 133.06650845299703 0 L 126.06650845299703 -3.5 L 126.06650845299703 -0.5 L 98.91020735149851 -0.5 Z"/><text text-anchor="middle" pointer-events="none" font-size="8px" fill="#000000" x="75.53325422649851" y="3" transform="rotate(180 75.53325422649851 0)" font-family="sans-serif">_RELATED</text></g><g class="relationship" transform="translate(249.72650279698985 16.67366882216706) rotate(486.06438393628844)"><path class="outline" fill="#A5ABB6" stroke="none" d="M 25 0.5 L 27.56471125691577 0.5 L 27.56471125691577 -0.5 L 25 -0.5 Z M 74.31861750691577 0.5 L 76.88332876383154 0.5 L 76.88332876383154 3.5 L 83.88332876383154 0 L 76.88332876383154 -3.5 L 76.88332876383154 -0.5 L 74.31861750691577 -0.5 Z"/><text text-anchor="middle" pointer-events="none" font-size="8px" fill="#000000" x="50.94166438191577" y="3" transform="rotate(180 50.94166438191577 0)" font-family="sans-serif">_RELATED</text></g></g><g class="layer nodes"><g class="node" transform="translate(-186.22827711911805,70.34751142760207)"><circle class="outline" cx="0" cy="0" r="25" fill="#FFC454" stroke="#d7a013" stroke-width="2px"/><text text-anchor="middle" pointer-events="none" font-family="sans-serif" dy="1.5625" font-size="25" fill="#2A2C34"/><text text-anchor="middle" pointer-events="none" x="0" y="5" font-size="10px" fill="#2A2C34" font-family="sans-serif"> 0</text></g><g class="node" transform="translate(44.406306952703076,33.68604805831583)"><circle class="outline" cx="0" cy="0" r="25" fill="#A5ABB6" stroke="#9AA1AC" stroke-width="2px"/><text text-anchor="middle" pointer-events="none" font-family="sans-serif" dy="1.5625" font-size="25" fill="#FFFFFF"/><text text-anchor="middle" pointer-events="none" x="0" y="5" font-size="10px" fill="#FFFFFF" font-family="sans-serif"> 1</text></g><g class="node" transform="translate(-86.8654512138028,-25.05272509667038)"><circle class="outline" cx="0" cy="0" r="25" fill="#A5ABB6" stroke="#9AA1AC" stroke-width="2px"/><text text-anchor="middle" pointer-events="none" font-family="sans-serif" dy="1.5625" font-size="25" fill="#FFFFFF"/><text text-anchor="middle" pointer-events="none" x="0" y="5" font-size="10px" fill="#FFFFFF" font-family="sans-serif"> 2</text></g><g class="node" transform="translate(-60.92887005734473,136.87559259137487)"><circle class="outline" cx="0" cy="0" r="25" fill="#A5ABB6" stroke="#9AA1AC" stroke-width="2px"/><text text-anchor="middle" pointer-events="none" font-family="sans-serif" dy="1.5625" font-size="25" fill="#FFFFFF"/><text text-anchor="middle" pointer-events="none" x="0" y="5" font-size="10px" fill="#FFFFFF" font-family="sans-serif"> 3</text></g><g class="node" transform="translate(185.62754232262233,104.69015903166186)"><circle class="outline" cx="0" cy="0" r="25" fill="#A5ABB6" stroke="#9AA1AC" stroke-width="2px"/><text text-anchor="middle" pointer-events="none" font-family="sans-serif" dy="1.5625" font-size="25" fill="#FFFFFF"/><text text-anchor="middle" pointer-events="none" x="0" y="5" font-size="10px" fill="#FFFFFF" font-family="sans-serif"> 4</text></g><g class="node" transform="translate(249.72650279698985,16.67366882216706)"><circle class="outline" cx="0" cy="0" r="25" fill="#A5ABB6" stroke="#9AA1AC" stroke-width="2px"/><text text-anchor="middle" pointer-events="none" font-family="sans-serif" dy="1.5625" font-size="25" fill="#FFFFFF"/><text text-anchor="middle" pointer-events="none" x="0" y="5" font-size="10px" fill="#FFFFFF" font-family="sans-serif"> 5</text></g></g></svg>